<svg width="64" height="64" viewBox="0 0 64 64" fill="none" xmlns="http://www.w3.org/2000/svg">
<path d="M48 52.7461V14.7949C48 13.1182 48 12.2798 47.673 11.638C47.3854 11.0735 46.9265 10.6146 46.362 10.327C45.7202 10 44.8802 10 43.2 10H20.8C19.1198 10 18.2798 10 17.638 10.327C17.0735 10.6146 16.6146 11.0735 16.327 11.638C16 12.2798 16 13.1198 16 14.8V52.7338C16 54.3087 16 55.0961 16.2745 55.3854C16.5175 55.6416 16.8776 55.7507 17.2219 55.6723C17.6108 55.5838 18.0476 54.9286 18.9211 53.6183C19.2888 53.0668 19.4726 52.7911 19.714 52.6724C19.9308 52.5657 20.1788 52.5411 20.4123 52.6032C20.6723 52.6723 20.9066 52.9066 21.3753 53.3753L22.8686 54.8686C23.2646 55.2646 23.4627 55.4627 23.691 55.5368C23.8918 55.6021 24.1082 55.6021 24.309 55.5368C24.5373 55.4627 24.7353 55.2647 25.1314 54.8687L25.1314 54.8686L26.8686 53.1314C27.2646 52.7354 27.4627 52.5373 27.691 52.4632C27.8918 52.3979 28.1082 52.3979 28.309 52.4632C28.5373 52.5373 28.7353 52.7353 29.1314 53.1313L29.1314 53.1314L30.8686 54.8686C31.2646 55.2646 31.4627 55.4627 31.691 55.5368C31.8918 55.6021 32.1082 55.6021 32.309 55.5368C32.5373 55.4627 32.7354 55.2646 33.1314 54.8686L34.8686 53.1314L34.8687 53.1313C35.2647 52.7353 35.4627 52.5373 35.691 52.4632C35.8918 52.3979 36.1082 52.3979 36.309 52.4632C36.5373 52.5373 36.7354 52.7354 37.1314 53.1314L38.8686 54.8686L38.8687 54.8687C39.2647 55.2647 39.4627 55.4627 39.691 55.5368C39.8918 55.6021 40.1082 55.6021 40.309 55.5368C40.5373 55.4627 40.7354 55.2646 41.1314 54.8686L42.6247 53.3753L42.6247 53.3753C43.0934 52.9066 43.3277 52.6723 43.5877 52.6032C43.8212 52.5411 44.0692 52.5657 44.286 52.6724C44.5274 52.7911 44.7112 53.0668 45.0789 53.6183C45.9524 54.9286 46.3892 55.5838 46.7781 55.6723C47.1224 55.7507 47.4825 55.6416 47.7255 55.3854C48 55.0961 48 54.3127 48 52.7461Z" stroke="#A89E9B" stroke-width="2"/>
<path d="M35 21L39 15L43 21L39 27L35 21Z" fill="#A89E9B"/>
<path d="M22 35C21.4477 35 21 35.4477 21 36C21 36.5523 21.4477 37 22 37V35ZM26 37C26.5523 37 27 36.5523 27 36C27 35.4477 26.5523 35 26 35V37ZM22 37H26V35H22V37Z" fill="#A89E9B"/>
<path d="M22 40C21.4477 40 21 40.4477 21 41C21 41.5523 21.4477 42 22 42V40ZM26 42C26.5523 42 27 41.5523 27 41C27 40.4477 26.5523 40 26 40V42ZM22 42H26V40H22V42Z" fill="#A89E9B"/>
<path d="M22 45C21.4477 45 21 45.4477 21 46C21 46.5523 21.4477 47 22 47V45ZM26 47C26.5523 47 27 46.5523 27 46C27 45.4477 26.5523 45 26 45V47ZM22 47H26V45H22V47Z" fill="#A89E9B"/>
<path d="M32 35C31.4477 35 31 35.4477 31 36C31 36.5523 31.4477 37 32 37V35ZM42 37C42.5523 37 43 36.5523 43 36C43 35.4477 42.5523 35 42 35V37ZM32 37H42V35H32V37Z" fill="#A89E9B"/>
<path d="M32 40C31.4477 40 31 40.4477 31 41C31 41.5523 31.4477 42 32 42V40ZM42 42C42.5523 42 43 41.5523 43 41C43 40.4477 42.5523 40 42 40V42ZM32 42H42V40H32V42Z" fill="#A89E9B"/>
<path d="M32 45C31.4477 45 31 45.4477 31 46C31 46.5523 31.4477 47 32 47V45ZM42 47C42.5523 47 43 46.5523 43 46C43 45.4477 42.5523 45 42 45V47ZM32 47H42V45H32V47Z" fill="#A89E9B"/>
<path d="M22 15C21.4477 15 21 15.4477 21 16C21 16.5523 21.4477 17 22 17V15ZM32 17C32.5523 17 33 16.5523 33 16C33 15.4477 32.5523 15 32 15V17ZM22 17H32V15H22V17Z" fill="#A89E9B"/>
<path d="M22 20C21.4477 20 21 20.4477 21 21C21 21.5523 21.4477 22 22 22V20ZM29 22C29.5523 22 30 21.5523 30 21C30 20.4477 29.5523 20 29 20V22ZM22 22H29V20H22V22Z" fill="#A89E9B"/>
</svg>
