<svg width="64" height="64" viewBox="0 0 64 64" fill="none" xmlns="http://www.w3.org/2000/svg">
<path d="M16.523 22.8828C16.6912 20.808 16.7754 19.7706 17.2333 18.9852C17.6365 18.2936 18.238 17.739 18.9599 17.393C19.7797 17 20.8205 17 22.9021 17H41.0979C43.1795 17 44.2203 17 45.0401 17.393C45.762 17.739 46.3635 18.2936 46.7667 18.9852C47.2246 19.7706 47.3088 20.808 47.477 22.8828L49.4391 47.0828C49.6339 49.4844 49.7312 50.6852 49.3236 51.6113C48.9655 52.425 48.3466 53.0962 47.5645 53.5189C46.6744 54 45.4696 54 43.0601 54H20.9399C18.5304 54 17.3256 54 16.4355 53.5189C15.6534 53.0962 15.0345 52.425 14.6764 51.6113C14.2688 50.6852 14.3661 49.4844 14.5609 47.0828L16.523 22.8828Z" stroke="#A89E9B" stroke-width="2"/>
<path d="M26 38L32 29L38 38L32 47L26 38Z" fill="#A89E9B"/>
<path d="M26 22V12C26 8.68629 28.6863 6 32 6V6C35.3137 6 38 8.68629 38 12V22" stroke="#A89E9B" stroke-width="2"/>
<circle cx="26" cy="23" r="2" fill="#A89E9B"/>
<circle cx="38" cy="23" r="2" fill="#A89E9B"/>
</svg>
