<svg width="0" height="0" class="hidden">
  <symbol viewBox="0 0 24 24" xmlns="http://www.w3.org/2000/svg" id="Calendar">
    <path d="M10 16v-2H8v2h2zm1-5h2v2h-2v-2zm5 2v-2h-2v2h2zm-5 1h2v2h-2v-2z"></path>
    <path fill-rule="evenodd" clip-rule="evenodd" d="M9 5V3H7v2c-.988 0-1.506.013-1.908.218a2 2 0 0 0-.874.874C4 6.52 4 7.08 4 8.2v8.6c0 1.12 0 1.68.218 2.108a2 2 0 0 0 .874.874C5.52 20 6.08 20 7.2 20h9.6c1.12 0 1.68 0 2.108-.218a2 2 0 0 0 .874-.874C20 18.48 20 17.92 20 16.8V8.2c0-1.12 0-1.68-.218-2.108a2 2 0 0 0-.874-.874c-.402-.205-.92-.217-1.908-.218V3h-2v2H9zM6 9v7.8c0 .593.002.918.02 1.15l.003.027.026.002C6.282 18 6.607 18 7.2 18h9.6c.593 0 .918-.002 1.15-.02l.027-.003.002-.026c.02-.233.021-.558.021-1.151V9H6z"></path>
  </symbol>
  <symbol viewBox="0 0 24 24" fill="none" xmlns="http://www.w3.org/2000/svg" id="Cash">
    <path fill-rule="evenodd" clip-rule="evenodd" d="M8 6h8v2a3 3 0 0 0 3 3h2v2h-2a3 3 0 0 0-3 3v2H8v-2a3 3 0 0 0-3-3H3v-2h2a3 3 0 0 0 3-3V6zM6 16v2H3v-3h2a1 1 0 0 1 1 1zm12 2h3v-3h-2a1 1 0 0 0-1 1v2zm0-10V6h3v3h-2a1 1 0 0 1-1-1zM6 6H3v3h2a1 1 0 0 0 1-1V6zM1 4h22v16H1V4zm12 8a1 1 0 1 1-2 0 1 1 0 0 1 2 0zm2 0a3 3 0 1 1-6 0 3 3 0 0 1 6 0z"
      fill="#000"></path>
  </symbol>
  <symbol viewBox="0 0 24 24" fill="none" xmlns="http://www.w3.org/2000/svg" id="Checkmark">
    <path d="M19 7.5L10 17l-5-5" stroke="#000" stroke-width="2"></path>
  </symbol>
  <symbol viewBox="0 0 24 24" fill="none" xmlns="http://www.w3.org/2000/svg" id="ChevronDown">
    <path d="M21 7.5L12 17 3 8"  stroke-width="2"></path>
  </symbol>
  <symbol viewBox="0 0 24 24" fill="none" xmlns="http://www.w3.org/2000/svg" id="Chevron Left">
    <path d="M16 3l-9 9 9 9" stroke="#000" stroke-width="2"></path>
  </symbol>
  <symbol viewBox="0 0 24 24" fill="none" xmlns="http://www.w3.org/2000/svg" id="Chevron Right">
    <path d="M8 21l9-9-9-9" stroke="#000" stroke-width="2"></path>
  </symbol>
  <symbol viewBox="0 0 24 24" fill="none" xmlns="http://www.w3.org/2000/svg" id="Chevron Up">
    <path d="M21 16l-9-9-9 9" stroke="#000" stroke-width="2"></path>
  </symbol>
  <symbol viewBox="0 0 24 24" fill="none" xmlns="http://www.w3.org/2000/svg" id="Coin">
    <path fill-rule="evenodd" clip-rule="evenodd" d="M20 12a8 8 0 1 1-16 0 8 8 0 0 1 16 0zm2 0c0 5.523-4.477 10-10 10S2 17.523 2 12 6.477 2 12 2s10 4.477 10 10zm-9.5-3.5c.537 0 1.047.016 1.428.207a.857.857 0 0 1 .378.348c.096.166.194.453.194.945 0 .492-.098.779-.194.945a.858.858 0 0 1-.378.348c-.381.19-.891.207-1.428.207h-1v-3h1zm-.998 5H11.5v1h2v2h-2v1h-2v-1h-1v-2h1v-1h-1v-2h1v-5h3.05c.48 0 1.433-.002 2.272.418.463.232.902.593 1.216 1.136.31.537.462 1.188.462 1.946s-.152 1.409-.462 1.946a2.855 2.855 0 0 1-1.216 1.136c-.84.42-1.792.419-2.273.418h-1.047z"
      fill="#000"></path>
  </symbol>
  <symbol viewBox="0 0 24 24" fill="none" xmlns="http://www.w3.org/2000/svg" id="Cross">
    <path d="M19 19L5 5m0 14L19 5" stroke-width="2"></path>
  </symbol>
  <symbol viewBox="0 0 24 24" fill="none" xmlns="http://www.w3.org/2000/svg" id="Danger">
    <path d="M19 19L5 5m0 14L19 5" stroke-width="2"></path>
  </symbol>
  <symbol viewBox="0 0 24 24" fill="none" xmlns="http://www.w3.org/2000/svg" id="Success">
    <path d="M19.0001 7.5L10.0004 16.9999L5.00012 12" stroke-width="2"/>
  </symbol>
  <symbol viewBox="0 0 24 24" fill="none" xmlns="http://www.w3.org/2000/svg" id="Gem">
    <path d="M3 10l9 11 9-11M3 10l4-6m-4 6h9m9 0l-4-6m4 6h-9m5-6H7m10 0l-5 6M7 4l5 6" stroke="#000" stroke-width="2"></path>
  </symbol>
  <symbol viewBox="0 0 24 24" fill="none" xmlns="http://www.w3.org/2000/svg" id="More">
    <path fill-rule="evenodd" clip-rule="evenodd" d="M7 12a2 2 0 1 1-4 0 2 2 0 0 1 4 0zm7 0a2 2 0 1 1-4 0 2 2 0 0 1 4 0zm5 2a2 2 0 1 0 0-4 2 2 0 0 0 0 4z" fill="#000"></path>
  </symbol>
  <symbol viewBox="0 0 24 24" fill="none" xmlns="http://www.w3.org/2000/svg" id="Plus">
    <path d="M22 12H2m10 10V2"  stroke-width="2"></path>
  </symbol>
  <symbol viewBox="0 0 24 24" xmlns="http://www.w3.org/2000/svg" id="Search">
    <path fill-rule="evenodd" clip-rule="evenodd" d="M5 10.5a5.5 5.5 0 1 1 11 0 5.5 5.5 0 0 1-11 0zM10.5 3a7.5 7.5 0 1 0 4.55 13.463l4.243 4.244 1.414-1.414-4.244-4.244A7.5 7.5 0 0 0 10.5 3z"></path>
  </symbol>
  <symbol viewBox="0 0 24 24"  xmlns="http://www.w3.org/2000/svg" id="Ellipsis">
    <path fill-rule="evenodd" clip-rule="evenodd" d="M7 12C7 13.1046 6.10457 14 5 14C3.89543 14 3 13.1046 3 12C3 10.8954 3.89543 10 5 10C6.10457 10 7 10.8954 7 12ZM14 12C14 13.1046 13.1046 14 12 14C10.8954 14 10 13.1046 10 12C10 10.8954 10.8954 10 12 10C13.1046 10 14 10.8954 14 12ZM19 14C20.1046 14 21 13.1046 21 12C21 10.8954 20.1046 10 19 10C17.8954 10 17 10.8954 17 12C17 13.1046 17.8954 14 19 14Z" />
  </symbol>
</svg>